IKResults
version=1
nRows=105
nColumns=5
inDegrees=yes

Units are S.I. units (second, meters, Newtons, ...)
If the header above contains a line with 'inDegrees', this indicates whether rotational values are in degrees (yes) or radians (no).

endheader
time	r_shoulder_elev	r_shoulder_side	r_elbow_flex	r_elbow_rotation
      3.26670000	     78.57191133	     -2.37402251	    102.01548879	     66.43569325
      3.28330000	     78.53528373	     -2.37147268	    102.61981259	     66.84408896
      3.30000000	     78.52249485	     -2.35938099	    103.13823967	     67.14161018
      3.31670000	     78.51616701	     -2.35013105	    103.63003667	     67.23551957
      3.33330000	     78.50971558	     -2.32464692	    104.03703716	     67.26192389
      3.35000000	     78.49517919	     -2.28695232	    104.47138612	     67.19578043
      3.36670000	     78.49673252	     -2.25508627	    104.83970618	     67.28339894
      3.38330000	     78.46741594	     -2.25608611	    105.17885138	     67.44536829
      3.40000000	     78.42702281	     -2.25777357	    105.39857232	     67.57386012
      3.41670000	     78.37297006	     -2.26142428	    105.56925450	     67.73339991
      3.43330000	     78.30819027	     -2.28518741	    105.69033994	     67.85969272
      3.45000000	     78.26078919	     -2.28536802	    105.78635102	     67.90288547
      3.46670000	     78.23861281	     -2.30821384	    105.84241512	     68.06132196
      3.48330000	     78.24656943	     -2.30686939	    105.88306344	     68.06552450
      3.50000000	     78.28863722	     -2.34169749	    105.92089848	     68.06278754
      3.51670000	     78.33271948	     -2.38054799	    105.92852901	     67.97659583
      3.53330000	     78.34818628	     -2.44638661	    105.92725106	     67.96863822
      3.55000000	     78.35527412	     -2.51773659	    105.96276973	     67.97143580
      3.56670000	     78.34501295	     -2.57830545	    105.97098987	     67.96509605
      3.58330000	     78.33270202	     -2.62626840	    106.02608721	     67.97856480
      3.60000000	     78.31074972	     -2.67607910	    106.09058721	     68.00012694
      3.61670000	     78.29214735	     -2.71008238	    106.09803660	     68.11035497
      3.63330000	     78.29226665	     -2.73303806	    106.04377100	     68.25367299
      3.65000000	     78.28910378	     -2.73157725	    105.93837431	     68.41631622
      3.66670000	     78.28384554	     -2.72254224	    105.83741472	     68.72027833
      3.68330000	     78.27849436	     -2.71353827	    105.73695785	     69.02360493
      3.70000000	     78.23451233	     -2.68659818	    105.68542428	     69.02860531
      3.71670000	     78.20600283	     -2.68694335	    105.67736132	     68.89986754
      3.73330000	     78.16059585	     -2.68772489	    105.65896819	     68.67577459
      3.75000000	     78.11088690	     -2.71780583	    105.58488769	     68.53072252
      3.76670000	     78.06967990	     -2.76769103	    105.40742868	     68.49912428
      3.78330000	     78.03284763	     -2.81896322	    105.12490828	     68.59968617
      3.80000000	     77.97781972	     -2.88819185	    104.75400409	     68.74227574
      3.81670000	     77.96191281	     -2.91672696	    104.29863085	     68.87386594
      3.83330000	     77.91743039	     -2.92069010	    103.71394008	     69.05132322
      3.85000000	     77.88691679	     -2.88920725	    102.90884760	     69.17790966
      3.86670000	     77.85132206	     -2.81735716	    102.04455794	     69.13467275
      3.88330000	     77.83398596	     -2.73481042	    101.14790966	     68.90891356
      3.90000000	     77.82239109	     -2.65282014	    100.37213690	     68.50971879
      3.91670000	     77.81749967	     -2.61146567	     99.69638301	     68.12095615
      3.93330000	     77.82770879	     -2.61030679	     99.03038032	     67.82612199
      3.95000000	     77.84290428	     -2.64450153	     98.28477151	     67.56946298
      3.96670000	     77.86866971	     -2.69841506	     97.39473671	     67.31594316
      3.98330000	     77.95558256	     -2.75209780	     96.32752030	     66.94197779
      4.00000000	     78.09886356	     -2.78760214	     95.17720069	     66.45654165
      4.01670000	     78.28425131	     -2.80141931	     94.00518988	     65.92367730
      4.03330000	     78.47137879	     -2.80962364	     92.86143410	     65.45826479
      4.05000000	     78.68274471	     -2.78105174	     91.63006599	     65.07154754
      4.06670000	     78.87822076	     -2.73460615	     90.21508616	     64.77472008
      4.08330000	     79.07550557	     -2.64449995	     88.65868994	     64.45093223
      4.10000000	     79.24905422	     -2.57478459	     86.93387699	     64.28236387
      4.11670000	     79.38081092	     -2.56070813	     85.11293571	     64.27617681
      4.13330000	     79.50405278	     -2.56274096	     83.20211510	     64.28753661
      4.15000000	     79.63642312	     -2.61113684	     81.07867987	     64.53708491
      4.16670000	     79.83533369	     -2.69986748	     78.74004996	     64.78209410
      4.18330000	     80.12337277	     -2.80264416	     76.37472653	     64.97730649
      4.20000000	     80.46496068	     -2.90705635	     74.24110145	     65.07648398
      4.21670000	     80.83991081	     -2.96329119	     72.32667699	     64.88226153
      4.23330000	     81.19914251	     -3.00817317	     70.32604006	     64.94155880
      4.25000000	     81.52759333	     -3.05634571	     68.09488803	     65.19043072
      4.26670000	     81.83935487	     -3.13854511	     65.61296726	     65.61681155
      4.28330000	     82.10782947	     -3.28731735	     63.10224654	     66.28058840
      4.30000000	     82.30560592	     -3.46758264	     60.96023896	     66.74672886
      4.31670000	     82.43800721	     -3.66231591	     59.36349574	     66.95291441
      4.33330000	     82.51883569	     -3.84832202	     58.11947189	     67.01465009
      4.35000000	     82.59511690	     -4.01138839	     57.00773430	     66.79341811
      4.36670000	     82.71184836	     -4.13771049	     55.81166137	     66.26540342
      4.38330000	     82.89598502	     -4.22548473	     54.40865207	     65.45584950
      4.40000000	     83.13957120	     -4.30158559	     52.74904806	     64.65310976
      4.41670000	     83.42014689	     -4.36227520	     50.89131389	     64.12632755
      4.43330000	     83.70831282	     -4.39148118	     48.97382795	     63.73993815
      4.45000000	     83.99629823	     -4.40439852	     46.98600651	     63.62316103
      4.46670000	     84.30106097	     -4.38306893	     44.95461497	     63.61251149
      4.48330000	     84.60913838	     -4.34180741	     42.85482821	     63.55616926
      4.50000000	     84.91150694	     -4.27916648	     40.79726007	     63.46301144
      4.51670000	     85.19537794	     -4.22062771	     38.78929005	     63.38643590
      4.53330000	     85.47836879	     -4.15224602	     36.87698874	     63.23726881
      4.55000000	     85.79111487	     -4.08666519	     34.78163206	     63.12911950
      4.56670000	     86.13952879	     -4.03570974	     32.50982718	     63.06331291
      4.58330000	     86.47627847	     -3.98634295	     30.34129364	     62.64669884
      4.60000000	     86.79006431	     -3.95890135	     28.38388779	     62.23483928
      4.61670000	     87.04931796	     -3.90410493	     26.79107537	     61.39966181
      4.63330000	     87.36193658	     -3.85210903	     25.16065177	     60.58891532
      4.65000000	     87.71119929	     -3.79667267	     23.40071142	     59.65278023
      4.66670000	     88.12840140	     -3.77176164	     21.38988069	     58.75803216
      4.68330000	     88.57257173	     -3.75690687	     19.30949434	     57.76313552
      4.70000000	     88.98076439	     -3.70997110	     17.51474425	     56.34143114
      4.71670000	     89.31027402	     -3.61409062	     16.06483484	     54.62156986
      4.73330000	     89.58314705	     -3.49926997	     14.66364270	     52.91233696
      4.75000000	     89.82633781	     -3.37197935	     13.27195874	     51.06382149
      4.76670000	     90.06995485	     -3.29394673	     11.67019160	     49.53005423
      4.78330000	     90.33495124	     -3.26180519	      9.88545908	     48.09794416
      4.80000000	     90.63320630	     -3.27490932	      7.89886642	     47.16208652
      4.81670000	     90.94732563	     -3.30332376	      5.84066561	     46.73966315
      4.83330000	     91.24230119	     -3.36847398	      3.81536098	     46.89419820
      4.85000000	     91.50157654	     -3.43641158	      1.94106610	     47.00221320
      4.86670000	     91.72102492	     -3.52535982	      0.22502807	     47.11379900
      4.88330000	     91.88321351	     -3.64678252	     -1.35649607	     47.09092165
      4.90000000	     92.02080731	     -3.79087030	     -2.78670522	     46.96044855
      4.91670000	     92.12800636	     -3.92668639	     -3.93554475	     46.57423729
      4.93330000	     92.21579297	     -4.03924847	     -4.98215666	     46.21418961
      4.95000000	     92.28135749	     -4.10081957	     -6.01303248	     45.85034188
      4.96670000	     92.32261683	     -4.08207461	     -7.14477727	     45.43759965
      4.98330000	     92.34017027	     -3.98248572	     -8.33395754	     45.02987898
      5.00000000	     92.35834359	     -3.82325987	     -9.60788216	     44.81916836
